<svg width="73" height="18" viewBox="0 0 73 18" fill="none" xmlns="http://www.w3.org/2000/svg">
<g clip-path="url(#clip0_1_50)">
<path d="M44.9192 11.2974L46.1568 4.55273H47.9769L45.9696 13.7645H43.8584L42.4855 6.90332L41.1127 13.7645H39.0014L36.9941 4.55273H38.8454L40.1974 11.2657L41.4559 4.55273H43.536L44.9192 11.2974ZM48.1121 10.3551C48.1121 7.95156 49.7866 6.77626 51.4818 6.77626C53.1771 6.77626 54.8515 7.96215 54.8515 10.3551C54.8515 12.748 53.1771 13.9233 51.4818 13.9233C49.7866 13.9233 48.1121 12.7586 48.1121 10.3551ZM49.8594 10.3551C49.8594 11.7739 50.5354 12.5574 51.4818 12.5574C52.4282 12.5574 53.1043 11.7845 53.1043 10.3551C53.1043 8.92568 52.4282 8.14215 51.4818 8.14215C50.5354 8.14215 49.8594 8.91509 49.8594 10.3551ZM59.7917 8.61862C59.5421 8.59744 59.3341 8.57626 59.0845 8.57626C58.2316 8.57626 57.67 8.89391 57.67 10.1751V13.7539H55.9436V6.91391H57.6388V8.11038C58.0236 7.27391 58.6373 6.9245 59.4069 6.9245C59.5213 6.9245 59.6669 6.93509 59.7813 6.94568V8.59744L59.7917 8.61862ZM62.3918 4.55273V9.67744L64.8359 6.93509H66.7703L64.3574 9.55038L66.9055 13.7645H64.9711L63.2134 10.7998L62.3918 11.6998V13.7539H60.6653V4.55273H62.3918ZM71.2529 8.9892C71.1281 8.41744 70.608 8.01509 69.8176 8.01509C69.1832 8.01509 68.736 8.25862 68.736 8.67156C68.736 9.04215 68.996 9.31744 69.6304 9.45509L70.5248 9.65626C71.8561 9.96332 73.0001 10.3021 73.0001 11.7104C73.0001 13.1186 71.6169 13.9233 70.088 13.9233C68.4448 13.9233 67.1967 13.0551 67.0303 11.4986H68.6944C68.7984 12.1551 69.256 12.6527 70.14 12.6527C70.8785 12.6527 71.3465 12.3774 71.3465 11.8798C71.3465 11.3821 70.8265 11.1704 70.244 11.0433L69.2456 10.8316C67.9872 10.5669 67.1447 10.0269 67.1447 8.78803C67.1447 7.54921 68.4448 6.75509 69.8904 6.75509C71.3361 6.75509 72.6257 7.41156 72.8441 8.9892H71.2321H71.2529Z" fill="#D4D4D4"/>
<path d="M12.9171 10.7362C12.6778 12.5892 11.1698 13.9233 8.99612 13.9233C6.31283 13.9233 4.76318 12.0386 4.76318 9.10565C4.76318 6.17271 6.40644 4.3833 9.04812 4.3833C11.1698 4.3833 12.6154 5.61154 12.9171 7.5386H11.2218C10.889 6.25742 10.0362 5.83389 9.03772 5.83389C7.66488 5.83389 6.61444 6.97742 6.61444 9.11624C6.61444 11.2551 7.66488 12.4833 8.97532 12.4833C10.0466 12.4833 10.9306 11.9857 11.2218 10.7468H12.9171V10.7362Z" fill="#D4D4D4"/>
<path d="M8.84029 18C3.96253 18 0 13.9659 0 9C0 4.03412 3.96253 0 8.84029 0C13.7181 0 17.6806 4.03412 17.6806 9C17.6806 13.9659 13.7181 18 8.84029 18ZM8.84029 1.58824C4.82576 1.58824 1.56005 4.91294 1.56005 9C1.56005 13.0871 4.82576 16.4118 8.84029 16.4118C12.8548 16.4118 16.1205 13.0871 16.1205 9C16.1205 4.91294 12.8548 1.58824 8.84029 1.58824Z" fill="#D4D4D4"/>
<path d="M22.0176 4.55273H25.5329C27.1345 4.55273 28.8298 5.05038 28.8298 6.95626C28.8298 7.8245 28.2786 8.58685 27.8106 8.9045C28.497 9.23273 29.1626 9.79391 29.1626 11.0539C29.1626 13.0445 27.5506 13.7751 25.6889 13.7751H22.0176V4.55273ZM23.8064 8.35391H25.6577C26.4897 8.35391 27.0097 7.93038 27.0097 7.13626C27.0097 6.41626 26.4897 5.98215 25.6577 5.98215H23.8064V8.35391ZM23.8064 12.3457H25.7825C26.8225 12.3457 27.3426 11.8904 27.3426 11.0539C27.3426 10.2174 26.8225 9.73038 25.7097 9.73038H23.8168V12.3457H23.8064Z" fill="#D4D4D4"/>
<path d="M24.9711 18C20.0934 18 16.1309 13.9659 16.1309 9C16.1309 4.03412 20.0934 0 24.9711 0C29.8489 0 33.8114 4.03412 33.8114 9C33.8114 13.9659 29.8489 18 24.9711 18ZM24.9711 1.58824C20.9566 1.58824 17.6909 4.91294 17.6909 9C17.6909 13.0871 20.9566 16.4118 24.9711 16.4118C28.9857 16.4118 32.2514 13.0871 32.2514 9C32.2514 4.91294 28.9857 1.58824 24.9711 1.58824Z" fill="#D4D4D4"/>
</g>
<defs>
<clipPath id="clip0_1_50">
<rect width="73" height="18" fill="white"/>
</clipPath>
</defs>
</svg>
